<?xml version="1.0" encoding="utf-8"?>
<!-- Generator: Adobe Illustrator 21.1.0, SVG Export Plug-In . SVG Version: 6.00 Build 0)  -->
<svg version="1.1" id="notary-logo" xmlns="http://www.w3.org/2000/svg" xmlns:xlink="http://www.w3.org/1999/xlink" x="0px"
	 y="0px" viewBox="0 0 1500 1500" style="enable-background:new 0 0 1500 1500;" xml:space="preserve">
<style type="text/css">
	.st0{fill:#F7971D;}
	.st1{fill:#FFFFFF;}
	.st2{fill:#EC6D23;}
	.st3{fill:#424243;}
	.st4{fill:#ED6D23;}
	.st5{fill:#F4F5F5;}
	.st6{fill:url(#reflection_2_);}
	.st7{fill:#5E4137;}
</style>
<g id="text">
	<g>
		<g>
			<path class="st0" d="M1304.7,1138.2l-114.2,265.7h-19.7l34.5-80.5l-75.2-185.2h20.1l43.6,110.8l22,54.3l21.6-54.7l47.1-110.4
				L1304.7,1138.2L1304.7,1138.2z"/>
		</g>
		<g>
			<path class="st0" d="M1001.4,1138.2l0.8,33.4c11.8-25.4,38.3-35.3,62.2-35.3c14-0.4,27.7,3.4,40.2,11l-8.4,15.2
				c-9.9-6.1-20.9-8.7-31.9-8.7c-34.9,0.4-61.9,28.5-61.9,62.6v109.3H984v-187.5H1001.4z"/>
		</g>
		<g>
			<path class="st0" d="M933.5,1138.2c0,62.6,0,124.9,0,187.5h-18.6v-39.9c-18.2,29.2-46.3,42.9-76.7,42.9
				c-52.4,0-95.3-39.5-95.3-96.8s42.9-96,95.3-96c30.4,0,61.1,14,76.7,43.3v-41H933.5z M761.6,1232c0,47.1,34.2,78.6,76.7,78.6
				c104.4,0,104.4-156.8,0-156.8C795.7,1153.8,761.6,1184.9,761.6,1232z"/>
		</g>
		<g>
			<path class="st0" d="M646.6,1081.7v56.6h63.8v15.6h-63.8V1268c0,25.4,5.3,43.3,34.5,43.3c9.1,0,19.4-3,28.8-7.6l6.5,15.2
				c-11.8,5.7-23.5,9.5-35.3,9.5c-39.9,0-52.8-23.5-52.8-60.3v-114.2h-39.9v-15.6h39.9v-54.7L646.6,1081.7z"/>
		</g>
		<g>
			<path class="st0" d="M374.1,1232.4c0-59.6,42.5-97.5,95.3-97.5s95.3,38,95.3,97.5c0,59.6-42.5,96-95.3,96
				S374.1,1291.9,374.1,1232.4z M546.4,1232.4c0-48.6-34.5-80.1-77-80.1s-77,31.5-77,80.1s34.5,77.8,77,77.8
				C511.9,1310.2,546.4,1280.9,546.4,1232.4z"/>
		</g>
		<g>
			<path class="st0" d="M182.8,1138.2v33.4c14.4-25.8,40.6-36.4,66.8-36.8c50.1,0,84.6,30.7,84.6,82.7v108.2h-18.6v-107.8
				c0-42.5-26.2-65.3-66.8-64.9c-38.7,0.4-65.7,29.6-65.7,68.3v104.4h-18.6v-187.5L182.8,1138.2L182.8,1138.2z"/>
		</g>
	</g>
</g>
<g id="owl">
	<g id="left-eye-outline_1_">
		<g>
			<path class="st0" d="M372.5,1008.9c179.6,0,326.1-146.5,326.1-326.1S552.1,356.7,372.5,356.7S46.4,503.2,46.4,682.8
				C46.3,862.4,192.8,1008.9,372.5,1008.9L372.5,1008.9z"/>
		</g>
	</g>
	<path id="left-eye-white-inner_1_" class="st1" d="M372.5,954.4c149.6,0,271.6-122,271.6-271.6s-122-271.6-271.6-271.6
		s-271.6,122-271.6,271.6C100.9,832.3,222.9,954.4,372.5,954.4L372.5,954.4z"/>
	<g id="right-eye-outline_1_">
		<g>
			<path class="st0" d="M1056.9,1008.9c179.6,0,326.1-146.5,326.1-326.1s-146.5-326.1-326.1-326.1S730.8,503.2,730.8,682.8
				C730.8,862.4,877.3,1008.9,1056.9,1008.9L1056.9,1008.9z"/>
		</g>
	</g>
	<g id="dark-orange-inner-left-eye_1_">
		<path class="st2" d="M418.2,730.2c46.4,0,84.3-37.9,84.3-84.3c0-46.4-37.8-84.3-84.3-84.3S334,599.5,334,646
			C334,692.4,371.8,730.2,418.2,730.2L418.2,730.2z"/>
	</g>
	<path id="right-eye-white-inner_1_" class="st1" d="M1056.9,954.4c149.6,0,271.6-122,271.6-271.6s-122-271.6-271.6-271.6
		s-271.6,122-271.6,271.6C785.3,832.3,907.3,954.4,1056.9,954.4L1056.9,954.4z"/>
	<g id="light-orange-inner-lefteye_1_">
		<path class="st0" d="M418.2,717.4c39.4,0,71.5-32.1,71.5-71.5s-32.1-71.5-71.5-71.5s-71.5,32.1-71.5,71.5
			C346.7,685.3,378.9,717.4,418.2,717.4L418.2,717.4z"/>
	</g>
	<g id="dark-inner-left-eye_1_">
		<g>
			<path class="st3" d="M418.2,681.2c19.4,0,35.2-15.8,35.2-35.2s-15.8-35.2-35.2-35.2c-19.4,0-35.2,15.8-35.2,35.2
				S398.8,681.2,418.2,681.2L418.2,681.2z"/>
		</g>
	</g>
	<g id="dark-orange-inner-right-eye_1_">
		<g>
			<path class="st4" d="M1011.1,797.7c83.5,0,151.7-68.2,151.7-151.7s-68.2-151.7-151.7-151.7S859.4,562.4,859.4,646
				C859.4,729.5,927.6,797.7,1011.1,797.7L1011.1,797.7z"/>
		</g>
	</g>
	<g id="light-orange-inner-right-eye_1_">
		<g>
			<path class="st0" d="M1011.1,774.6c70.9,0,128.7-57.8,128.7-128.7s-57.8-128.7-128.7-128.7S882.4,575,882.4,645.9
				C882.4,716.8,940.2,774.6,1011.1,774.6L1011.1,774.6z"/>
		</g>
	</g>
	<g id="dark-inner-right-eye_1_">
		<g>
			<path class="st3" d="M1011.1,709.4c34.9,0,63.4-28.5,63.4-63.4s-28.5-63.4-63.4-63.4c-35,0-63.4,28.5-63.4,63.4
				C947.7,680.9,976.2,709.4,1011.1,709.4L1011.1,709.4z"/>
		</g>
	</g>
	<g id="light-head_1_">
		<g>
			<path class="st0" d="M714.7,228.4c0-106.3,351.7,98.4,577.6-132.8c-30.2,706.6-362.1-200.2-577.6,710.7
				c-215.5-911-547.4-4.1-577.6-710.7C363,326.8,714.7,122.1,714.7,228.4L714.7,228.4z"/>
		</g>
	</g>
	<g id="dark-head_1_">
		<g>
			<path class="st4" d="M1263.6,305c-91,281.1-363.1-192.9-548.9,592.2c-185.8-785.1-457.9-311-549-592.2
				c149.2,60.3,439.2-34.6,548.9,377.7C826.9,264,1114.4,365.3,1263.6,305L1263.6,305z"/>
		</g>
	</g>
	<g id="light-nose_1_">
		<g>
			<path class="st0" d="M714.7,714.3l-85.5,87.2l85.5,174V714.3L714.7,714.3z"/>
		</g>
	</g>
	<g id="dark-nose_1_">
		<g>
			<path class="st4" d="M714.7,714.3l85.5,87.2l-85.5,174V714.3L714.7,714.3z"/>
		</g>
	</g>
	<g id="left-eye-reflection_1_">
		<path class="st5" d="M385.2,641.3c9.7,0,17.6-7.9,17.6-17.6c0-9.7-7.9-17.6-17.6-17.6s-17.6,7.9-17.6,17.6
			S375.5,641.3,385.2,641.3L385.2,641.3z"/>
	</g>
	<g id="right-eye-reflection_1_">
		<g>
			<path class="st5" d="M966.5,631.8c17.5,0,31.7-14.2,31.7-31.7s-14.3-31.7-31.7-31.7c-17.5,0-31.7,14.2-31.7,31.7
				C934.7,617.5,949,631.8,966.5,631.8L966.5,631.8z"/>
		</g>
	</g>
</g>
<g id="monocole_5_">
	
		<linearGradient id="reflection_2_" gradientUnits="userSpaceOnUse" x1="766.9" y1="818.35" x2="1350.2" y2="818.35" gradientTransform="matrix(1 0 0 -1 0 1500)">
		<stop  offset="0" style="stop-color:#FFFFFF;stop-opacity:0.4"/>
		<stop  offset="8.659510e-02" style="stop-color:#F8F8F8;stop-opacity:0.3654"/>
		<stop  offset="0.2172" style="stop-color:#E3E3E3;stop-opacity:0.3131"/>
		<stop  offset="0.3755" style="stop-color:#C1C1C1;stop-opacity:0.2498"/>
		<stop  offset="0.5557" style="stop-color:#929292;stop-opacity:0.1777"/>
		<stop  offset="0.7542" style="stop-color:#555555;stop-opacity:9.830964e-02"/>
		<stop  offset="0.9651" style="stop-color:#0D0D0D;stop-opacity:1.395184e-02"/>
		<stop  offset="1" style="stop-color:#000000;stop-opacity:0"/>
	</linearGradient>
	<path id="reflection_1_" class="st6" d="M1058.5,973.3c160.6,0,291.7-131,291.7-291.7c0-160.6-131-291.6-291.7-291.6
		c-160.6,0-291.6,131-291.6,291.6C766.9,842.3,897.9,973.3,1058.5,973.3L1058.5,973.3z"/>
	<path id="body_1_" class="st7" d="M1391.4,620.7c-9.3,0-18.1,2.2-26.1,5.9c-26.6-144.9-153.6-255.1-306.1-255.1
		c-171.8,0-311.4,139.7-311.4,311.4s139.7,311.4,311.4,311.4c152.5,0,279.5-110.2,306.1-255.1c8,3.7,16.8,5.9,26.1,5.9
		c7.3,0,14.2-1.5,20.8-3.8v642.2c0,11.5,9.3,20.8,20.8,20.8c11.4,0,20.7-9.3,20.7-20.8V683C1453.7,648.7,1425.7,620.7,1391.4,620.7z
		 M1059.2,954.9c-149.9,0-271.9-122-271.9-271.9s122-271.9,271.9-271.9s271.9,122,271.9,271.9S1209.1,954.9,1059.2,954.9z"/>
</g>
</svg>
